<?xml version="1.0" encoding="UTF-8" standalone="no"?>
<!-- Created with Inkscape (http://www.inkscape.org/) -->

<svg
   xmlns:dc="http://purl.org/dc/elements/1.1/"
   xmlns:cc="http://creativecommons.org/ns#"
   xmlns:rdf="http://www.w3.org/1999/02/22-rdf-syntax-ns#"
   xmlns:svg="http://www.w3.org/2000/svg"
   xmlns="http://www.w3.org/2000/svg"
   xmlns:sodipodi="http://sodipodi.sourceforge.net/DTD/sodipodi-0.dtd"
   xmlns:inkscape="http://www.inkscape.org/namespaces/inkscape"
   width="512"
   height="512"
   id="svg4756"
   version="1.1"
   inkscape:version="0.48.5 r10040"
   sodipodi:docname="texture.svg"
   inkscape:export-filename="/Users/jeremie/projects/CardboardMonkey/texture1.png"
   inkscape:export-xdpi="90"
   inkscape:export-ydpi="90">
  <defs
     id="defs4758" />
  <sodipodi:namedview
     id="base"
     pagecolor="#643400"
     bordercolor="#666666"
     borderopacity="1.0"
     inkscape:pageopacity="0"
     inkscape:pageshadow="2"
     inkscape:zoom="0.97227183"
     inkscape:cx="242.5953"
     inkscape:cy="244.15689"
     inkscape:current-layer="layer1"
     showgrid="true"
     inkscape:document-units="px"
     inkscape:grid-bbox="true"
     inkscape:window-width="1440"
     inkscape:window-height="783"
     inkscape:window-x="0"
     inkscape:window-y="0"
     inkscape:window-maximized="1" />
  <metadata
     id="metadata4761">
    <rdf:RDF>
      <cc:Work
         rdf:about="">
        <dc:format>image/svg+xml</dc:format>
        <dc:type
           rdf:resource="http://purl.org/dc/dcmitype/StillImage" />
        <dc:title></dc:title>
      </cc:Work>
    </rdf:RDF>
  </metadata>
  <g
     id="layer1"
     inkscape:label="Layer 1"
     inkscape:groupmode="layer"
     transform="translate(0,448)">
    <rect
       style="fill:#643400;fill-opacity:1"
       id="rect4764"
       width="512"
       height="512"
       x="0"
       y="-448" />
    <path
       sodipodi:type="arc"
       style="fill:#dcb080;fill-opacity:1"
       id="path5293"
       sodipodi:cx="252.36363"
       sodipodi:cy="346.18182"
       sodipodi:rx="149.09091"
       sodipodi:ry="158.54546"
       d="m 103.27272,346.18182 a 149.09091,158.54546 0 0 1 298.18182,0 l -149.09091,0 z"
       transform="matrix(1.3226221,0,0,1.3226221,-77.781717,-393.8676)"
       sodipodi:start="3.1415927"
       sodipodi:end="6.2831853" />
    <path
       sodipodi:type="arc"
       style="fill:#dcb080;fill-opacity:1"
       id="path5295"
       sodipodi:cx="162.18182"
       sodipodi:cy="288.72726"
       sodipodi:rx="37.090908"
       sodipodi:ry="69.090912"
       d="m 199.27273,288.72726 a 37.090908,69.090912 0 1 1 -74.18181,0 37.090908,69.090912 0 1 1 74.18181,0 z"
       transform="matrix(2.5296938,0,0,1.6126798,-246.18815,-644.60055)" />
    <path
       transform="matrix(2.5296938,0,0,1.6126798,-46.655473,-644.60055)"
       d="m 199.27273,288.72726 a 37.090908,69.090912 0 1 1 -74.18181,0 37.090908,69.090912 0 1 1 74.18181,0 z"
       sodipodi:ry="69.090912"
       sodipodi:rx="37.090908"
       sodipodi:cy="288.72726"
       sodipodi:cx="162.18182"
       id="path5307"
       style="fill:#dcb080;fill-opacity:1"
       sodipodi:type="arc" />
    <path
       sodipodi:type="arc"
       style="fill:#333333;fill-opacity:1"
       id="path5299"
       sodipodi:cx="8.727273"
       sodipodi:cy="306.90909"
       sodipodi:rx="20.363636"
       sodipodi:ry="20.363636"
       d="m -2.7775097,290.10678 a 20.363636,20.363636 0 1 1 -3.7231045,3.28236 L 8.727273,306.90909 z"
       transform="translate(167.62566,-488.6239)"
       sodipodi:start="4.1119957"
       sodipodi:end="10.150835" />
    <path
       sodipodi:end="10.150835"
       sodipodi:start="4.1119957"
       transform="translate(343.62566,-488.6239)"
       d="m -2.7775097,290.10678 a 20.363636,20.363636 0 1 1 -3.7231045,3.28236 L 8.727273,306.90909 z"
       sodipodi:ry="20.363636"
       sodipodi:rx="20.363636"
       sodipodi:cy="306.90909"
       sodipodi:cx="8.727273"
       id="path5303"
       style="fill:#333333;fill-opacity:1"
       sodipodi:type="arc" />
    <path
       sodipodi:type="star"
       style="fill:#333333;fill-opacity:1"
       id="path5305"
       sodipodi:sides="3"
       sodipodi:cx="234.50232"
       sodipodi:cy="365.95032"
       sodipodi:r1="28.798531"
       sodipodi:r2="14.399265"
       sodipodi:arg1="1.5707963"
       sodipodi:arg2="2.6179939"
       inkscape:flatsided="false"
       inkscape:rounded="0"
       inkscape:randomized="0"
       d="m 234.50232,394.74885 -12.47013,-21.5989 -12.47013,-21.5989 24.94026,0 24.94026,0 -12.47013,21.5989 z"
       transform="translate(28.798531,-437.71481)"
       inkscape:transform-center-y="7.1996327" />
    <path
       style="fill:#333333;fill-opacity:1"
       d="m 192.62698,19.881163 c -19.40283,9.472438 -6.75588,21.407865 28.24774,26.658522 35.00361,5.25066 79.10873,1.828229 98.51155,-7.644207 12.20158,-5.956796 12.10815,-13.200224 -0.2468,-19.133821 0,0 -38.97787,9.603845 -63.13283,9.626662 -24.15499,0.02282 -63.37966,-9.507156 -63.37966,-9.507156 z"
       id="path5315"
       inkscape:connector-curvature="0"
       sodipodi:nodetypes="cssczc" />
  </g>
</svg>
